PathFileType	4	(X/Y/Z)	/Users/niels/Desktop/University/Third Semester/Perception and Action/Exam/Gymnastics Motion Tracking/Code for Gym Tracking/Analyzed Data/Webcam_Backflip/id1_8_trajectory_Sports2D/id1_8_trajectory_Sports2D_px_person00.trc
DataRate	CameraRate	NumFrames	NumMarkers	Units	OrigDataRate	OrigDataStartFrame	OrigNumFrames
29.71698113207547	29.71698113207547	7	22	m	29.71698113207547	79	106
Frame#	Time	Hip			RHip			RKnee			RAnkle			RBigToe			RSmallToe			RHeel			LHip			LKnee			LAnkle			LBigToe			LSmallToe			LHeel			Neck			Head			Nose			RShoulder			RElbow			RWrist			LShoulder			LElbow			LWrist		
		X1	Y1	Z1	X2	Y2	Z2	X3	Y3	Z3	X4	Y4	Z4	X5	Y5	Z5	X6	Y6	Z6	X7	Y7	Z7	X8	Y8	Z8	X9	Y9	Z9	X10	Y10	Z10	X11	Y11	Z11	X12	Y12	Z12	X13	Y13	Z13	X14	Y14	Z14	X15	Y15	Z15	X16	Y16	Z16	X17	Y17	Z17	X18	Y18	Z18	X19	Y19	Z19	X20	Y20	Z20	X21	Y21	Z21	X22	Y22	Z22
79	2.658412698412698	0.9144378845777442	-0.42139872508568693	0.0	0.916792542789952	-0.4217302133763314	0.0	0.9796440468309262	-0.32634282318821956	0.0	1.0547179565554763	-0.3922063531530216	0.0	1.0984745061644483	-0.368871637868391	0.0	1.1004861590285053	-0.37991928620963267	0.0	1.0631852123684598	-0.4076928512481306	0.0	0.909032284714429	-0.4179111391995633	0.0	0.9768021111329047	-0.33035817769781695	0.0	1.0541186836803564	-0.386184329559494	0.0	1.1010601605724644	-0.36617616604645015	0.0	1.0994154323905299	-0.3682449067996668	0.0	1.0636860095117822	-0.40635899598820713	0.0	0.7691586873128596	-0.3372152176023597	0.0	0.7116346312230939	-0.27108044404497583	0.0	0.760226244000469	-0.2837242058074253	0.0	0.7705979035823309	-0.33410584288955014	0.0	0.7734046100721662	-0.2614662744168082	0.0	0.7368357476942065	-0.19754773648721924	0.0	0.7683409424769643	-0.3390582573455239	0.0	0.7719074007626151	-0.26627542555469774	0.0	0.7396667674489378	-0.20578153462011234	0.0
80	2.692063492063492	0.9141040773787599	-0.4033849766685189	0.0	0.9171593183222314	-0.4035906945380646	0.0	0.9460404124127855	-0.2879659710854828	0.0	1.039962971473036	-0.31825457232559756	0.0	1.0715467590703884	-0.27873783288004833	0.0	1.077232957036912	-0.2879392661857863	0.0	1.0543514535953913	-0.3296239475498058	0.0	0.9071073818661533	-0.39922779777024614	0.0	0.9437901652506953	-0.29275182264948707	0.0	1.0371079154853857	-0.31372271115511546	0.0	1.0735835740893047	-0.27532191367862263	0.0	1.0714797933581988	-0.280594225208616	0.0	1.0536493503758513	-0.32912202552724285	0.0	0.7640432392787299	-0.3391657667587636	0.0	0.7051484110897445	-0.2780669202098809	0.0	0.7547070321124472	-0.2866974174214422	0.0	0.7682401180915397	-0.33629549871040376	0.0	0.7839611537498044	-0.2649242302439822	0.0	0.7495042311525167	-0.20078028228372619	0.0	0.7646608511365028	-0.34161413823120007	0.0	0.7797545663957931	-0.2695653444390983	0.0	0.7498025631057545	-0.2089173047880571	0.0
81	2.7257142857142855	0.9145689451009048	-0.38432041590224914	0.0	0.9184849633022949	-0.3839211777123901	0.0	0.9093781715893581	-0.26223161991736665	0.0	1.0084463858613422	-0.2551295659896303	0.0	1.0228459509786778	-0.20842587578605118	0.0	1.032012275714471	-0.21267870156212418	0.0	1.025998834557051	-0.2611853426935554	0.0	0.9065175876203047	-0.3799608506676816	0.0	0.9079297407839775	-0.2676075860780358	0.0	1.0035620778582466	-0.2527750644290174	0.0	1.0253118239012302	-0.20287763741053103	0.0	1.0221088745094458	-0.21276971925552599	0.0	1.024179601389167	-0.26151365897758466	0.0	0.7627463813304335	-0.34686376090856685	0.0	0.7012831998765474	-0.2935272180297695	0.0	0.7508324778872087	-0.29648278767594666	0.0	0.769824236221154	-0.34360371142792234	0.0	0.7969386129973771	-0.27237043540563494	0.0	0.763837199685746	-0.20801207423641774	0.0	0.7656367555392009	-0.349917140516187	0.0	0.7900442911656955	-0.27722858058874333	0.0	0.7612942448663678	-0.21736003125081543	0.0
82	2.759365079365079	0.9143194099855185	-0.36365549123809965	0.0	0.9189259251383494	-0.362379220524014	0.0	0.8728589898678552	-0.24888330235703982	0.0	0.9609366164017599	-0.20775887669130028	0.0	0.9560758687314563	-0.16360937861295982	0.0	0.9681462458100355	-0.1605478513689492	0.0	0.978214991112283	-0.2083361937450513	0.0	0.9057185422117658	-0.3597780914055472	0.0	0.8724567721706837	-0.25454501155277715	0.0	0.9546783571853095	-0.20755661492608027	0.0	0.959914121852379	-0.15493057215085673	0.0	0.9551172679899602	-0.17038867906091115	0.0	0.9757119149350879	-0.2091875134839305	0.0	0.7655942039780655	-0.35935057682514815	0.0	0.7006884139382247	-0.31730480856144716	0.0	0.7483194332094785	-0.31284486576202947	0.0	0.7754708893312566	-0.3546348522907363	0.0	0.8100638573708306	-0.28190734245475996	0.0	0.7768147404045589	-0.21824412161216505	0.0	0.7714102980365062	-0.36275541760160557	0.0	0.8009295522831255	-0.2874953643907424	0.0	0.7719992242282614	-0.2302469267835478	0.0
83	2.7930158730158725	0.9119020416981917	-0.3419504508907392	0.0	0.916644562900825	-0.3399602174622181	0.0	0.8388359802236395	-0.24696511497146031	0.0	0.9013586481824027	-0.17968877468476938	0.0	0.8784365540195954	-0.1460878178845526	0.0	0.8923302729581675	-0.13532505295487685	0.0	0.9152670409235657	-0.17539558747710268	0.0	0.9032262725561123	-0.3392120971805093	0.0	0.8396562339557407	-0.25238998917569966	0.0	0.894372403538782	-0.1809953672713149	0.0	0.8839266287281187	-0.1348460437326881	0.0	0.8776476355634724	-0.15507688840210887	0.0	0.9125974925292034	-0.17636490174616473	0.0	0.772951925065353	-0.3751235117977153	0.0	0.704672364723852	-0.34800606415622826	0.0	0.7477841083091854	-0.3350244311795944	0.0	0.784971965409273	-0.36778779851345456	0.0	0.8210287624802989	-0.2917362805615988	0.0	0.7853298473825958	-0.23118995014047697	0.0	0.7819667942941927	-0.3782141792958375	0.0	0.810643221263166	-0.2982742886777261	0.0	0.7803273076473829	-0.2466994489842926	0.0
84	2.826666666666666	0.9060832965365045	-0.3209338704221047	0.0	0.9101435410768219	-0.31872575813410636	0.0	0.8088420654198275	-0.25541522174826703	0.0	0.8361761692064128	-0.17297496058195994	0.0	0.7995165780344332	-0.1549399996067123	0.0	0.8134189856361066	-0.1388254700140975	0.0	0.8446056281626941	-0.16457337055863372	0.0	0.8978157656473632	-0.3197389700983799	0.0	0.8108941411815851	-0.25969655795946867	0.0	0.8286925240568781	-0.17480935385490523	0.0	0.8057411625801314	-0.14366028971099593	0.0	0.7990612085883891	-0.16495854807038468	0.0	0.8419743285771168	-0.16543134918434954	0.0	0.7848580701886274	-0.3922232070943004	0.0	0.714794478841057	-0.38308679015343045	0.0	0.750509048837714	-0.3615648892320698	0.0	0.7976277363335379	-0.3814257863336722	0.0	0.827971927329409	-0.30096999970371185	0.0	0.7872295224132762	-0.24773296520312305	0.0	0.7968309152860131	-0.3939208541397555	0.0	0.8177101452492541	-0.308166300042183	0.0	0.7853843286626355	-0.26638104907417115	0.0
85	2.86031746031746	0.8960362219503707	-0.30306876483959666	0.0	0.8985750415937861	-0.3011980416886515	0.0	0.7838288085116969	-0.2732848479307976	0.0	0.7727531850846643	-0.18809456189463547	0.0	0.7289705037726802	-0.1880707611072205	0.0	0.7406282136515968	-0.17051704352324426	0.0	0.7747530187433476	-0.17634971987958786	0.0	0.8887427091071188	-0.3035183202276827	0.0	0.7871186067154007	-0.27541122552475444	0.0	0.7648033845773627	-0.18952054297217377	0.0	0.7342832954284367	-0.17977672378401702	0.0	0.7288241046894293	-0.19697480928178973	0.0	0.7720986511008132	-0.17709813395182042	0.0	0.8006580922827579	-0.40855862354465644	0.0	0.7322006128566194	-0.4192501804714308	0.0	0.7578919899299834	-0.3904228678596241	0.0	0.812414854540463	-0.39406007077188265	0.0	0.8300202492427646	-0.30986076628612375	0.0	0.7827827424239834	-0.26920805419798016	0.0	0.814823688779583	-0.407702422578042	0.0	0.8212448458282793	-0.31729046844324604	0.0	0.7872169839347244	-0.28945462361819585	0.0
